<svg width="260" height="96" viewBox="0 0 260 96" fill="none" xmlns="http://www.w3.org/2000/svg">
<path d="M45.9651 15.8965L46.9236 23.9224C42.1518 19.0245 34.5295 15.9806 27.151 15.9806C12.6463 15.9764 0.882812 27.7399 0.882812 42.2488C0.882812 56.7577 12.6463 68.5212 27.1552 68.5212C34.5337 68.5212 42.156 65.4773 46.9278 60.5794L45.9693 68.5212H58.9815V15.8965H45.9693H45.9651ZM27.151 54.7985C20.2224 54.7985 14.6013 49.1816 14.6013 42.2488C14.6013 35.316 20.2182 29.6991 27.151 29.6991C34.0838 29.6991 39.7007 35.316 39.7007 42.2488C39.7007 49.1816 34.0838 54.7985 27.151 54.7985Z" fill="#FF595A"/>
<path d="M246.58 15.8965L247.538 23.9224C242.766 19.0245 235.144 15.9806 227.766 15.9806C213.257 15.9806 201.493 27.7441 201.493 42.253C201.493 56.7619 213.257 68.5254 227.766 68.5254C235.144 68.5254 242.766 65.4815 247.538 60.5836L246.58 68.5254H259.592V15.8965H246.58ZM227.766 54.7985C220.837 54.7985 215.216 49.1816 215.216 42.2488C215.216 35.316 220.833 29.6991 227.766 29.6991C234.698 29.6991 240.315 35.316 240.315 42.2488C240.315 49.1816 234.698 54.7985 227.766 54.7985Z" fill="#FF595A"/>
<path d="M112.893 15.9766C98.3836 15.9766 86.6201 27.7401 86.6201 42.249C86.6201 56.7579 98.3836 68.5214 112.893 68.5214C127.401 68.5214 139.165 56.7579 139.165 42.249C139.165 27.7401 127.401 15.9766 112.893 15.9766ZM112.893 54.7945C105.964 54.7945 100.343 49.1776 100.343 42.2448C100.343 35.312 105.96 29.6951 112.893 29.6951C119.825 29.6951 125.442 35.312 125.442 42.2448C125.442 49.1776 119.825 54.7945 112.893 54.7945Z" fill="#FF595A"/>
<path d="M82.4874 0H66.5869V68.5168H82.4874V0Z" fill="#FF595A"/>
<path d="M196.721 41.9081C196.536 27.5589 184.853 15.9804 170.457 15.9804C166.791 15.9804 163.302 16.733 160.136 18.0909V0H144.235V68.5168H160.136V41.4372C160.552 36.0894 165.009 31.8809 170.457 31.8809C175.906 31.8809 180.766 36.472 180.825 42.1519V68.5252H196.721V41.9123V41.9081Z" fill="#FF595A"/>
<path d="M180.922 77.2701C180.922 76.3241 181.712 75.5127 182.658 75.5127C183.604 75.5127 184.416 76.3241 184.416 77.2701C184.416 78.216 183.625 79.0064 182.658 79.0064C181.691 79.0064 180.922 78.216 180.922 77.2701ZM181.25 80.3224H184.083V91.2997H181.25V80.3224Z" fill="#FF595A"/>
<path d="M204.192 84.5394V91.2999H201.358V84.737C201.358 83.4421 200.698 82.6517 199.513 82.6517C198.26 82.6517 197.469 83.4841 197.469 85.1322V91.2999H194.636V84.737C194.636 83.4421 193.976 82.6517 192.79 82.6517C191.604 82.6517 190.726 83.4841 190.726 85.1322V91.2999H187.892V80.3225H190.726V81.4871C191.34 80.5664 192.374 80.0156 193.778 80.0156C195.182 80.0156 196.149 80.5874 196.763 81.5964C197.444 80.6084 198.541 80.0156 200.034 80.0156C202.536 80.0156 204.184 81.794 204.184 84.5394H204.192Z" fill="#FF595A"/>
<path d="M219.008 80.3223V91.2997H216.174V90.0048C215.384 90.9928 214.198 91.6066 212.596 91.6066C209.674 91.6066 207.261 89.084 207.261 85.8089C207.261 82.5338 209.674 80.0112 212.596 80.0112C214.198 80.0112 215.384 80.6251 216.174 81.6131V80.3181H219.008V80.3223ZM216.174 85.8131C216.174 83.9674 214.879 82.7188 213.122 82.7188C211.365 82.7188 210.091 83.9716 210.091 85.8131C210.091 87.6546 211.386 88.9074 213.122 88.9074C214.858 88.9074 216.174 87.6546 216.174 85.8131Z" fill="#FF595A"/>
<path d="M233.98 80.3227V90.7745C233.98 94.3734 231.146 96.0004 228.25 96.0004C225.899 96.0004 224.012 95.1007 223.045 93.3223L225.458 91.9391C225.92 92.7968 226.643 93.4779 228.334 93.4779C230.112 93.4779 231.209 92.5109 231.209 90.7787V89.5931C230.44 90.6232 229.254 91.2622 227.695 91.2622C224.575 91.2622 222.229 88.7354 222.229 85.6411C222.229 82.5468 224.579 80.02 227.695 80.02C229.254 80.02 230.44 80.6549 231.209 81.6891V80.3269H233.976L233.98 80.3227ZM231.214 85.6369C231.214 83.9006 229.919 82.6519 228.14 82.6519C226.362 82.6519 225.067 83.9048 225.067 85.6369C225.067 87.3691 226.362 88.643 228.14 88.643C229.919 88.643 231.214 87.3901 231.214 85.6369Z" fill="#FF595A"/>
<path d="M243.262 89.0378C244.36 89.0378 245.238 88.5753 245.722 87.9405L248.005 89.2564C246.975 90.7489 245.327 91.6066 243.22 91.6066C239.533 91.6066 237.204 89.084 237.204 85.8089C237.204 82.5338 239.554 80.0112 243.002 80.0112C246.252 80.0112 248.556 82.58 248.556 85.8089C248.556 86.2251 248.514 86.5993 248.446 86.9735H240.168C240.563 88.424 241.77 89.0378 243.262 89.0378ZM245.722 84.7789C245.369 83.1981 244.183 82.5632 242.998 82.5632C241.484 82.5632 240.45 83.3746 240.122 84.7789H245.722Z" fill="#FF595A"/>
<path d="M259.596 88.0964C259.596 90.4676 257.532 91.6112 255.181 91.6112C252.987 91.6112 251.36 90.6904 250.569 89.0003L253.029 87.6171C253.336 88.5168 254.084 89.0424 255.181 89.0424C256.081 89.0424 256.695 88.7354 256.695 88.0964C256.695 86.4946 251.032 87.3733 251.032 83.5096C251.032 81.2687 252.941 80.02 255.202 80.02C256.981 80.02 258.52 80.8314 259.373 82.3492L256.96 83.6651C256.632 82.963 256.014 82.5468 255.202 82.5468C254.5 82.5468 253.929 82.8537 253.929 83.4465C253.929 85.0693 259.592 84.0603 259.592 88.1006L259.596 88.0964Z" fill="#FF595A"/>
</svg>
